<svg id="图层_1" data-name="图层 1" xmlns="http://www.w3.org/2000/svg" xmlns:xlink="http://www.w3.org/1999/xlink" viewBox="0 -1 32 33"><defs><style>.cls-1{fill:url(#未命名的渐变_6);}.cls-2{fill:url(#未命名的渐变_6-2);}.cls-3,.cls-4,.cls-5{fill:none;stroke-miterlimit:10;}.cls-3,.cls-4{stroke:#fff;}.cls-3{stroke-width:2.34px;}.cls-4{stroke-width:2.34px;}.cls-5{stroke-width:1.87px;stroke:url(#未命名的渐变_6-3);}.cls-6{fill:url(#未命名的渐变_6-4);}</style><linearGradient id="未命名的渐变_6" x1="10.76" y1="21.4" x2="21.97" y2="21.4" gradientUnits="userSpaceOnUse"><stop offset="0" stop-color="#1a90ff"/><stop offset="1" stop-color="#1a90ff"/></linearGradient><linearGradient id="未命名的渐变_6-2" x1="2.22" y1="17.2" x2="30.26" y2="17.2" xlink:href="#未命名的渐变_6"/><linearGradient id="未命名的渐变_6-3" x1="21.37" y1="27.01" x2="28.19" y2="27.01" xlink:href="#未命名的渐变_6"/><linearGradient id="未命名的渐变_6-4" x1="10.76" y1="5.04" x2="21.69" y2="5.04" xlink:href="#未命名的渐变_6"/></defs><path class="cls-1" d="M20.57,31.22H12.16a1.41,1.41,0,0,1-1.4-1.41V11.59H22V29.81A1.4,1.4,0,0,1,20.57,31.22Z"/><rect class="cls-2" x="2.22" y="11.59" width="28.04" height="11.22" rx="1.4"/><path class="cls-3" d="M9,11.5A7.59,7.59,0,0,0,16.71,19,7.6,7.6,0,0,0,24,11.5"/><path class="cls-4" d="M16,19a5.56,5.56,0,0,0,.74,6.8A5.47,5.47,0,0,0,22.3,27"/><circle class="cls-5" cx="24.78" cy="27.01" r="2.48"/><ellipse class="cls-6" cx="16.23" cy="5.04" rx="5.47" ry="5.51"/></svg>
